<?xml version="1.0" encoding="UTF-8"?>
<svg xmlns="http://www.w3.org/2000/svg" xmlns:xlink="http://www.w3.org/1999/xlink" viewBox="0 0 128 128" width="128px" height="128px">
<g id="surface3146744">
<path style=" stroke:none;fill-rule:nonzero;fill:rgb(100%,100%,100%);fill-opacity:1;" d="M 60 8 C 31.28125 8 8 31.25 8 59.90625 C 8 82.84375 22.90625 102.3125 43.5625 109.1875 C 46.15625 109.65625 48 107 48 105 C 48 103.78125 48.03125 102.3125 48 98 C 33.53125 101.125 29 91 29 91 C 26.625 85 23.75 83.28125 23.75 83.28125 C 19.03125 80.0625 24.09375 80.15625 24.09375 80.15625 C 29.3125 80.5 32 85 32 85 C 36 92 45.03125 91.3125 48 90 C 48 86.8125 48.34375 84.5 49.21875 83.03125 C 32.875 80.15625 23.96875 70.71875 24 57.65625 C 24.03125 49.9375 26.6875 43.9375 31 39.5 C 29.125 37.125 27.84375 29 31.6875 24 C 41.34375 24 47.09375 30.96875 47.09375 30.96875 C 47.09375 30.96875 51.625 29 59.96875 29 C 68.34375 29 72.84375 30.875 72.84375 30.875 C 72.84375 30.875 78.625 24 88.28125 24 C 92.125 29 90.84375 37.125 89.34375 39.34375 C 93.46875 43.6875 96 49.6875 96 57.65625 C 96 70.71875 87.125 80.15625 70.8125 83 C 71.84375 84.5625 72 86.75 72 90 C 72 96.9375 72 103.28125 72 105 C 72 107 73.8125 109.6875 76.46875 109.1875 C 97.125 102.28125 112 82.84375 112 59.90625 C 112 31.25 88.71875 8 60 8 Z M 60 8 "/>
</g>
</svg>
