<?xml version="1.0" encoding="UTF-8"?>
<svg xmlns="http://www.w3.org/2000/svg" xmlns:xlink="http://www.w3.org/1999/xlink" viewBox="0 0 128 128" width="128px" height="128px">
<g id="surface255539236">
<path style=" stroke:none;fill-rule:nonzero;fill:rgb(100%,100%,100%);fill-opacity:1;" d="M 19.90625 24.09375 C 13.3125 24.09375 7.90625 29.5 7.90625 36.09375 L 7.90625 92.09375 C 7.90625 98.6875 13.3125 104.09375 19.90625 104.09375 L 107.90625 104.09375 C 114.46875 104.09375 119.90625 98.6875 119.90625 92.09375 L 119.90625 36.09375 C 119.90625 29.5 114.5 24.09375 107.90625 24.09375 Z M 19.90625 32.09375 L 107.90625 32.09375 C 110.15625 32.09375 111.90625 33.84375 111.90625 36.09375 L 111.90625 92.09375 C 111.90625 94.34375 110.15625 96.09375 107.90625 96.09375 L 19.90625 96.09375 C 17.65625 96.09375 15.90625 94.34375 15.90625 92.09375 L 15.90625 36.09375 C 15.90625 33.84375 17.65625 32.09375 19.90625 32.09375 Z M 48 39.9375 L 48 88.09375 L 88 64 Z M 56 54.0625 L 72.5 64 L 56 73.9375 Z M 56 54.0625 "/>
</g>
</svg>
